<svg xmlns="http://www.w3.org/2000/svg" xmlns:xlink="http://www.w3.org/1999/xlink" t="1524234556814" id="apple" class="icon" style="" viewBox="0 0 1024 1024" version="1.1" p-id="1903" width="200" height="200"><defs><style type="text/css"/></defs><path d="M508.928 145.408s66.56-133.632 201.216-48.128c0 0-74.752 102.912-201.216 48.128z" fill="#60ED58" p-id="1904"/><path d="M622.592 86.528c18.944 0 38.912 5.632 60.416 16.384-15.36 17.408-46.592 44.544-94.208 44.544-16.896 0-34.816-3.584-53.76-10.24 14.336-19.968 43.008-50.688 87.552-50.688m0-18.432c-77.312 0-113.664 77.312-113.664 77.312 30.208 14.336 56.832 19.968 79.872 19.968 81.408 0 121.344-68.096 121.344-68.096-33.792-20.992-62.976-29.184-87.552-29.184z" fill="#353942" p-id="1905"/><path d="M539.648 133.632s47.104-59.392 121.344-39.936c0 0-34.304-14.336-69.12-1.536-23.04 8.192-47.104 29.696-52.224 41.472z" fill="#BDFFB8" p-id="1906"/><path d="M543.744 139.264s80.384 15.872 139.264-35.84c0 0-54.272 71.168-139.264 35.84z" fill="#43CE38" p-id="1907"/><path d="M489.472 267.264s-16.384-56.32-4.096-121.856c3.072-16.384 9.728-24.064 30.72-24.576 10.24 0 24.064 7.68 23.04 15.872-8.192 63.488-11.264 107.008 12.288 134.144l-61.952-3.584z" fill="#967245" p-id="1908"/><path d="M516.096 131.072c5.12 0 10.752 3.072 12.288 5.12-6.656 51.712-10.24 92.672 3.584 122.88l-34.304-2.048c-3.584-16.384-11.776-60.928-2.048-110.08 1.536-11.264 4.096-15.36 20.48-15.872m0-10.24s-0.512 0 0 0c-20.992 0.512-27.648 7.68-30.72 24.576-12.288 65.024 4.096 121.856 4.096 121.856l61.952 4.096c-23.552-27.648-20.48-70.656-12.288-134.144 0.512-8.192-12.8-16.384-23.04-16.384z" fill="#353942" p-id="1909"/><path d="M892.928 445.44c-62.464-356.864-381.952-185.344-381.952-185.344S190.976 88.576 129.024 445.44c-50.176 287.744 146.432 500.224 215.552 512s116.736-39.936 166.912-39.936 97.792 51.2 166.912 39.936c68.096-11.776 264.704-224.256 214.528-512z" fill="#EF3A54" p-id="1910"/><path d="M672.256 237.056c109.056 0 177.152 71.168 201.216 211.456 33.792 192.512-50.176 336.896-88.064 390.144-42.496 60.416-89.6 96.768-112.128 100.864-5.632 1.024-11.264 1.536-17.408 1.536-27.136 0-51.712-10.752-75.264-20.992-22.528-9.728-46.08-20.48-71.168-20.48s-48.64 10.24-71.168 20.48c-23.552 10.24-48.128 20.992-75.264 20.992-5.632 0-11.264-0.512-17.408-1.536-22.528-3.584-69.632-40.448-112.128-100.864-37.888-53.248-121.856-197.632-88.064-390.144 24.576-140.288 92.16-211.456 201.216-211.456 79.872 0 153.088 38.912 154.112 38.912l8.704 4.608 8.704-4.608c1.024 0 73.728-38.912 154.112-38.912m0-17.92c-85.504 0-162.304 41.472-162.304 41.472s-76.8-41.472-162.304-41.472C258.56 219.136 159.744 263.68 128 445.44c-50.176 287.744 146.432 500.224 215.552 512 7.168 1.024 13.824 1.536 20.48 1.536 58.368 0 101.376-41.472 146.432-41.472s88.064 41.472 146.432 41.472c6.656 0 13.312-0.512 20.48-1.536 69.12-11.264 265.728-224.256 215.552-512-32.768-181.76-131.584-226.304-220.672-226.304z" fill="#353942" p-id="1911"/><path d="M674.816 238.08S968.704 377.856 680.96 936.96c0 0 58.368-19.968 137.216-153.6 114.688-194.56 84.48-545.792-143.36-545.28z" fill="#F24466" p-id="1912"/><path d="M659.968 238.08s192-27.648 211.968 254.976c19.968 281.088-172.032 433.152-172.032 433.152s130.048-82.944 173.056-296.448c41.984-214.016-50.688-407.552-212.992-391.68z" fill="#FFFDFD" p-id="1913"/><path d="M349.184 237.568s109.568 20.992 160.768 76.8c0 0 38.4-49.664 138.24-75.776 0 0-73.216 6.144-138.24 43.008 0-0.512-78.336-44.032-160.768-44.032zM337.408 936.448s66.048 13.312 140.8-49.664c17.92-15.36 49.152-19.968 66.56-1.536 44.544 47.104 110.592 54.784 110.592 54.784s-25.088 6.144-102.912-32.256c-12.8-6.144-41.984-17.92-75.264-4.608-69.12 28.16-89.6 45.056-139.776 33.28z" fill="#E5304B" p-id="1914"/><path d="M323.072 237.568s-275.968 304.128 8.192 694.784c0 0-195.072-138.24-194.56-397.824 0-297.472 186.368-296.96 186.368-296.96z" fill="#EF333C" p-id="1915"/></svg>