<?xml version="1.0" standalone="no"?><!DOCTYPE svg PUBLIC "-//W3C//DTD SVG 1.1//EN" "http://www.w3.org/Graphics/SVG/1.1/DTD/svg11.dtd"><svg t="1524234590912" class="icon" style="" viewBox="0 0 1024 1024" version="1.1" xmlns="http://www.w3.org/2000/svg" p-id="2333" xmlns:xlink="http://www.w3.org/1999/xlink" width="200" height="200"><defs><style type="text/css"></style></defs><path d="M936.96 584.192c0 221.696-183.296 381.44-420.352 381.44s-430.08-145.92-430.08-368.128 192.512-394.752 430.08-394.752S936.96 362.496 936.96 584.192z" fill="#FF8622" p-id="2334"></path><path d="M483.84 102.912c2.048 17.92 9.728 84.48 9.216 107.008 0 3.072 2.56 6.144 5.632 6.656 8.704 1.024 25.088 2.56 36.352 0.512 3.072-0.512 5.12-3.072 5.12-6.144 0.512-23.04 0.512-120.832-13.824-120.832-15.36 0-17.408-3.584-39.424 6.656-2.048 1.024-3.584 3.584-3.072 6.144z" fill="#967245" p-id="2335"></path><path d="M555.52 96.256s30.72-31.232 94.72-28.672c35.84 1.536 47.104-4.096 50.176-8.192 0.512-0.512 1.536 0 1.536 0.512 0 14.848-44.032 124.928-167.936 63.488 0.512 0 16.896-23.04 21.504-27.136z" fill="#60ED58" p-id="2336"></path><path d="M516.096 218.112s496.128 56.32 359.936 556.544c0 0 72.704-190.976 45.568-272.896-55.808-167.424-155.136-275.456-405.504-283.648z" fill="#FFFFFF" p-id="2337"></path><path d="M562.688 115.712s74.752 18.944 109.056-29.696c0 0-12.8 29.696-46.08 39.424-33.792 9.728-62.976-9.728-62.976-9.728z" fill="#43CE38" p-id="2338"></path><path d="M642.048 85.504h7.68c4.608 0 8.704 0.512 12.8 0.512h9.728c-12.288 17.92-33.792 37.888-68.096 37.888-12.8 0-26.624-2.56-41.472-8.192 2.048-3.072 4.096-5.12 5.12-6.144l0.512-0.512 0.512-0.512c0.512-0.512 24.064-23.04 73.216-23.04m59.392-26.624s-0.512 0-0.512 0.512c-3.072 3.584-11.776 8.192-38.4 8.192-3.584 0-7.68 0-11.776-0.512h-8.704c-58.368 0-86.528 28.672-86.528 28.672-4.608 4.096-20.992 27.648-20.992 27.648 26.624 13.312 49.664 18.432 69.12 18.432 71.68 0 98.816-70.144 98.816-81.92 0-0.512-0.512-1.024-1.024-1.024z" fill="#353942" p-id="2339"></path><path d="M113.664 509.44s-61.44 406.016 416.256 424.448c187.904 7.168 322.048-142.848 322.048-142.848s-75.264 142.336-344.576 169.472c-0.512 0-468.992-34.816-393.728-451.072z" fill="#F96555" p-id="2340"></path><path d="M516.608 220.672c111.104 0 212.992 36.352 287.232 102.912 74.24 66.56 115.2 159.232 115.2 260.096s-40.96 193.536-115.2 260.096-176.128 102.912-287.232 102.912c-238.592 0-411.648-146.944-411.648-349.696 0-101.888 42.496-196.608 119.808-267.264 77.312-70.144 180.736-109.056 291.84-109.056m0-17.92c-237.568 0-430.08 173.056-430.08 394.752s192.512 368.128 430.08 368.128 420.352-159.744 420.352-381.44-183.296-381.44-420.352-381.44z" fill="#353942" p-id="2341"></path><path d="M512.512 107.52h4.608c3.072 13.312 5.632 46.08 5.632 92.16h-1.024c-3.584 0-7.168 0-10.24-0.512-1.024-24.064-5.632-65.024-8.192-89.6 5.632-2.048 7.68-2.048 9.216-2.048m0-18.432c-6.144 0-12.288 1.024-25.088 7.168-2.56 1.024-4.096 4.096-3.584 6.656 2.048 17.92 9.728 84.48 9.216 107.008 0 3.072 2.56 6.144 5.632 6.656 5.632 0.512 14.336 1.536 23.04 1.536 4.608 0 9.728-0.512 13.824-1.024 3.072-0.512 5.12-3.072 5.12-6.144 0.512-23.04 0.512-120.832-13.824-120.832-6.144-0.512-10.24-1.024-14.336-1.024z" fill="#353942" p-id="2342"></path><path d="M556.735921 868.177539a10.24 10.24 0 1 0 12.886537-15.917523 10.24 10.24 0 1 0-12.886537 15.917523Z" fill="#FC7D27" p-id="2343"></path><path d="M689.865778 832.337722a10.24 10.24 0 1 0 12.886537-15.917524 10.24 10.24 0 1 0-12.886537 15.917524Z" fill="#FC7D27" p-id="2344"></path><path d="M637.827652 866.589095a11.776 11.776 0 1 0 14.819518-18.305152 11.776 11.776 0 1 0-14.819518 18.305152Z" fill="#FC7D27" p-id="2345"></path><path d="M671.174299 760.894525a14.848 14.848 0 1 0 18.685479-23.08041 14.848 14.848 0 1 0-18.685479 23.08041Z" fill="#FC7D27" p-id="2346"></path><path d="M488.222087 841.554432a11.776 11.776 0 1 0 14.819517-18.305152 11.776 11.776 0 1 0-14.819517 18.305152Z" fill="#FC7D27" p-id="2347"></path><path d="M754.845622 789.590292a20.992 20.992 0 1 0 26.4174-32.630923 20.992 20.992 0 1 0-26.4174 32.630923Z" fill="#FC7D27" p-id="2348"></path><path d="M616.603645 764.920205a6.656 6.656 0 1 0 3.785935-12.762289 6.656 6.656 0 1 0-3.785935 12.762289Z" fill="#FC7D27" p-id="2349"></path><path d="M568.190439 803.7245a5.632 5.632 0 1 0 7.087596-8.754639 5.632 5.632 0 1 0-7.087596 8.754639Z" fill="#FC7D27" p-id="2350"></path></svg>