<?xml version="1.0" standalone="no"?><!DOCTYPE svg PUBLIC "-//W3C//DTD SVG 1.1//EN" "http://www.w3.org/Graphics/SVG/1.1/DTD/svg11.dtd"><svg t="1524234580982" class="icon" style="" viewBox="0 0 1024 1024" version="1.1" xmlns="http://www.w3.org/2000/svg" p-id="2179" xmlns:xlink="http://www.w3.org/1999/xlink" width="200" height="200"><defs><style type="text/css"></style></defs><path d="M657.92 217.088s52.224-111.104 84.992-117.76c0 0-143.872-12.8-179.2 69.632l10.24 60.416 83.968-12.288zM388.096 220.672s-52.224-111.104-84.992-117.76c0 0 133.632-13.824 179.2 69.632l-10.24 60.416-83.968-12.288z" fill="#60ED58" p-id="2180"></path><path d="M579.072 180.224s11.776 22.016 10.752 34.304c0 0 23.04-8.192 34.816-8.192 0 0-25.6 9.216-39.936 19.456 0.512 0-3.584-27.136-5.632-45.568z" fill="#43CE38" p-id="2181"></path><path d="M347.648 120.32c38.912 3.072 97.792 16.384 124.416 63.488l8.704 61.44L394.24 210.432c-9.728-24.064-26.624-62.464-46.592-90.112m-23.04-18.432c-13.312 0-21.504 1.024-21.504 1.024 33.28 6.656 77.824 120.832 77.824 120.832L501.76 272.896l-12.8-94.208c-35.84-68.608-123.392-76.8-164.352-76.8zM698.88 115.712C675.84 144.384 655.36 184.32 645.632 204.8l-59.392 27.136-5.632-59.904c20.48-41.984 78.848-53.248 118.272-56.32m23.04-16.896c-40.96 0-131.584 7.68-158.208 70.144l8.704 87.04 85.504-38.912s52.224-111.104 84.992-117.76c0 0-8.192-0.512-20.992-0.512z" fill="#353942" p-id="2182"></path><path d="M457.216 328.192S337.92 256 231.936 254.464c0 0 116.736-87.552 229.888-29.696 0 0-5.12-45.568 62.976-187.392 0 0 57.344 107.008 59.904 187.392 0 0 103.936-75.776 236.032 12.8 0 0-185.856 46.592-227.328 90.624H457.216z" fill="#60ED58" p-id="2183"></path><path d="M524.8 77.824c16.384 36.864 40.448 97.792 42.496 147.456l1.024 32.768 26.624-19.456c0.512-0.512 37.376-27.136 94.72-27.136 28.672 0 57.344 6.656 85.504 19.968-55.808 15.872-151.552 46.592-188.928 78.848H461.824c-18.432-10.752-93.696-52.224-174.592-68.096 24.064-10.752 56.32-20.992 91.136-20.992 26.624 0 52.224 6.144 75.264 17.92l28.672 15.36-3.584-32.256c0 0.512-1.536-37.888 46.08-144.384m0-40.448C456.704 178.688 461.824 224.768 461.824 224.768 433.664 209.92 404.992 204.8 378.368 204.8c-80.896 0-146.432 49.664-146.432 49.664 106.496 1.536 225.28 73.728 225.28 73.728h135.68c41.472-44.032 227.328-90.624 227.328-90.624C771.584 204.8 727.04 194.56 689.664 194.56c-63.488 0-104.96 30.208-104.96 30.208-3.072-80.896-59.904-187.392-59.904-187.392z" fill="#353942" p-id="2184"></path><path d="M726.528 376.32c-47.616-91.136-206.336-87.04-206.336-87.04s-158.208-4.096-206.336 87.04c-46.08 88.576-112.64 468.48 33.28 538.624 62.464 29.696 172.544 26.624 172.544 26.624s110.592 3.584 172.544-26.624c146.944-70.144 80.384-450.048 34.304-538.624z" fill="#F7E74D" p-id="2185"></path><path d="M376.832 339.456s-41.984 549.376 67.072 581.12c0 0-173.056 19.456-168.448-215.04 5.12-279.04 65.536-353.792 101.376-366.08z" fill="#F2D64C" p-id="2186"></path><path d="M553.984 305.152s237.056 83.968 99.84 605.184c0 0 168.96 30.208 101.376-427.008-0.512-0.512-18.944-202.752-201.216-178.176z" fill="#F7E561" p-id="2187"></path><path d="M678.4 921.088c5.12-2.048 9.728-3.584 14.336-6.144 28.16-13.312 48.128-38.4 62.464-70.656l-76.8 76.8zM273.408 515.072c-3.584 19.968-6.656 40.448-9.216 61.952L372.736 686.08l-104.96 104.96c2.048 9.728 4.608 19.456 7.168 28.16l115.2-115.2 117.248 117.248-110.08 110.08c10.24 2.048 20.48 3.584 30.72 5.12l97.28-97.28 95.744 95.744c10.24-1.536 19.968-3.584 29.696-5.632L542.72 821.248l117.248-117.248 105.984 105.984c2.56-9.216 4.608-18.944 6.656-29.184L678.912 686.08l97.792-97.792c-1.024-10.752-2.56-21.504-4.096-31.744l-111.616 111.616-117.248-117.248 117.248-117.248 110.08 110.08c-2.048-14.848-4.608-29.184-7.68-43.52l-84.48-84.48 44.032-44.032c-4.608-7.68-9.728-14.336-15.36-20.48l-46.592 46.592-106.496-106.496c-20.48-2.048-34.304-1.536-34.304-1.536s-8.192 0-21.504 0.512l-107.52 107.52L337.92 345.088c-6.144 5.632-11.776 12.288-16.384 18.944l51.712 51.712-99.84 99.328z m369.664 171.008l-117.248 117.248L408.576 686.08l117.248-117.248 117.248 117.248z m-117.248-387.584l117.248 117.248-117.248 117.248-117.248-117.248 117.248-117.248zM390.656 433.664l117.248 117.248-117.248 117.248-117.248-117.248 117.248-117.248z" fill="#7A4D39" p-id="2188"></path><path d="M588.8 157.696s35.84-26.624 94.72-33.792c0 0-22.528 35.328-30.72 66.56 0 0 26.112-50.176 46.08-74.752 0 0-71.168-0.512-110.08 41.984z" fill="#BDFFB8" p-id="2189"></path><path d="M668.672 339.456s18.432 5.632 42.496 60.928c17.408 40.448 56.32 240.128 41.472 354.816-5.632 41.984-10.24 84.992-37.888 122.88 0 0 87.04-66.048 51.712-313.344 0 0 0-177.152-97.792-225.28z" fill="#FFFFFF" p-id="2190"></path><path d="M523.776 307.2c14.848 0 147.968 2.048 187.392 77.824 32.768 62.464 81.408 296.96 35.84 433.664-13.312 40.448-34.304 68.096-61.44 80.896-48.128 23.04-130.56 25.088-155.136 25.088h-10.752-9.728c-24.064 0-107.008-1.536-155.136-25.088-27.136-12.8-47.616-40.448-61.44-80.896-45.568-137.216 3.072-371.712 35.84-433.664C369.152 309.248 502.272 307.2 517.12 307.2H523.776m0-17.408h-3.072-3.072c-23.04 0-159.232 3.584-202.752 87.04-46.08 88.576-112.64 468.48 33.28 538.624 50.688 24.064 133.632 26.624 162.304 26.624h20.48c28.672 0 111.616-2.048 162.304-26.624 146.432-70.144 79.872-450.048 33.28-538.624-43.52-83.456-179.712-87.04-202.752-87.04z" fill="#353942" p-id="2191"></path><path d="M621.568 225.28s44.544-19.456 137.728 5.632c0 0-75.776 15.872-102.912 41.984 0 0 18.432-11.776 120.832-39.936-0.512-0.512-81.408-42.496-155.648-7.68z" fill="#BDFFB8" p-id="2192"></path><path d="M466.432 189.44s-5.12 21.504-4.608 34.816c0 0-21.504-10.752-35.84-13.824 0 0 18.944-2.56 30.208 5.12 0 0.512 2.048-17.92 10.24-26.112zM287.744 242.688s84.48-6.144 174.592 51.2l-23.04 4.096c-0.512 0-69.12-38.912-151.552-55.296zM348.16 120.32s29.184 43.52 43.52 84.992c0 0 9.728 1.024 15.36 2.048 0-0.512-22.528-64-58.88-87.04z" fill="#43CE38" p-id="2193"></path><path d="M524.8 77.824s37.376 102.912 39.424 121.856c0 0-7.68-54.784-39.424-121.856z" fill="#BDFFB8" p-id="2194"></path><path d="M501.76 443.392m-13.824 0a13.824 13.824 0 1 0 27.648 0 13.824 13.824 0 1 0-27.648 0Z" fill="#F4D647" p-id="2195"></path><path d="M634.368 795.648m-7.168 0a7.168 7.168 0 1 0 14.336 0 7.168 7.168 0 1 0-14.336 0Z" fill="#F4D647" p-id="2196"></path><path d="M553.984 649.728m-13.824 0a13.824 13.824 0 1 0 27.648 0 13.824 13.824 0 1 0-27.648 0Z" fill="#F4D647" p-id="2197"></path><path d="M539.648 466.944m-7.168 0a7.168 7.168 0 1 0 14.336 0 7.168 7.168 0 1 0-14.336 0Z" fill="#F4D647" p-id="2198"></path><path d="M410.112 497.664m-3.584 0a3.584 3.584 0 1 0 7.168 0 3.584 3.584 0 1 0-7.168 0Z" fill="#F4D647" p-id="2199"></path><path d="M608.256 534.528m-11.776 0a11.776 11.776 0 1 0 23.552 0 11.776 11.776 0 1 0-23.552 0Z" fill="#F4D647" p-id="2200"></path><path d="M711.168 534.528m-17.92 0a17.92 17.92 0 1 0 35.84 0 17.92 17.92 0 1 0-35.84 0Z" fill="#F4D647" p-id="2201"></path><path d="M491.52 710.656m-18.944 0a18.944 18.944 0 1 0 37.888 0 18.944 18.944 0 1 0-37.888 0Z" fill="#F4D647" p-id="2202"></path><path d="M512 619.008m-5.632 0a5.632 5.632 0 1 0 11.264 0 5.632 5.632 0 1 0-11.264 0Z" fill="#F4D647" p-id="2203"></path><path d="M462.848 535.04m-7.168 0a7.168 7.168 0 1 0 14.336 0 7.168 7.168 0 1 0-14.336 0Z" fill="#F4D647" p-id="2204"></path><path d="M402.432 592.896m-7.168 0a7.168 7.168 0 1 0 14.336 0 7.168 7.168 0 1 0-14.336 0Z" fill="#F4D647" p-id="2205"></path></svg>