<?xml version="1.0" standalone="no"?><!DOCTYPE svg PUBLIC "-//W3C//DTD SVG 1.1//EN" "http://www.w3.org/Graphics/SVG/1.1/DTD/svg11.dtd"><svg t="1524234568719" class="icon" style="" viewBox="0 0 1024 1024" version="1.1" xmlns="http://www.w3.org/2000/svg" p-id="2043" xmlns:xlink="http://www.w3.org/1999/xlink" width="200" height="200"><defs><style type="text/css"></style></defs><path d="M488.448 182.784l-429.568 477.184c-10.752 12.288-9.728 30.72 3.072 40.96 55.296 44.544 210.944 150.016 447.488 150.016s392.192-105.472 447.488-150.016c12.8-10.24 14.336-29.184 3.072-40.96l-429.568-477.184c-11.264-12.8-30.72-12.8-41.984 0z" fill="#FF576B" p-id="2044"></path><path d="M505.856 186.368L952.32 701.44l12.288-20.992-452.096-499.2z" fill="#FFFFFF" p-id="2045"></path><path d="M95.744 639.488S266.24 761.856 501.76 761.856c240.64 0 422.912-122.368 422.912-122.368l29.184 33.28S824.32 836.096 501.76 836.096c-266.24 0-437.248-166.4-437.248-166.4l31.232-30.208z" fill="#64F264" p-id="2046"></path><path d="M74.752 662.016s166.4 148.48 427.008 148.48 446.976-145.408 446.976-145.408l12.288 13.312s-175.616 167.424-459.264 167.424-445.44-165.888-445.44-165.888l18.432-17.92z" fill="#26D126" p-id="2047"></path><path d="M509.44 188.416c3.584 0 7.168 1.536 9.728 4.096l430.08 477.696c2.56 2.56 3.584 6.144 3.072 9.728-0.512 3.584-2.048 6.656-4.608 9.216-54.784 44.032-206.848 146.944-438.272 146.944-231.424 0-383.488-102.912-438.272-146.944-2.56-2.048-4.608-5.632-4.608-9.216-0.512-3.584 1.024-7.168 3.072-9.728l430.08-477.696c2.56-2.56 6.144-4.096 9.728-4.096m0-15.36c-7.68 0-15.36 3.072-20.992 9.216l-430.08 477.696c-10.752 11.776-9.216 30.72 3.072 40.448 55.296 44.544 210.944 150.528 448 150.528s392.704-105.984 448-150.528c12.288-10.24 13.824-28.672 3.072-40.448l-430.08-477.696a28.3648 28.3648 0 0 0-20.992-9.216z" fill="#353942" p-id="2048"></path><path d="M509.44 289.792s-17.92 32.256 0 43.008c17.408-9.728 0-43.008 0-43.008zM441.856 372.224s-17.92 32.256 0 43.008c17.408-9.728 0-43.008 0-43.008zM379.904 481.792s-17.92 32.256 0 43.008c17.408-9.728 0-43.008 0-43.008z" fill="#4F4F4F" p-id="2049"></path><path d="M578.048 377.344s-17.92 32.256 0 43.008c17.408-9.728 0-43.008 0-43.008zM509.44 481.792s-17.92 32.256 0 43.008c17.408-9.728 0-43.008 0-43.008zM335.872 587.264s-16.384 32.256 0 43.008c16.384-10.24 0-43.008 0-43.008zM453.12 587.264s-16.384 32.256 0 43.008c16.384-10.24 0-43.008 0-43.008zM570.368 587.264s-16.384 32.256 0 43.008c16.384-10.24 0-43.008 0-43.008zM687.616 587.264s-16.384 32.256 0 43.008c16.384-10.24 0-43.008 0-43.008z" fill="#303330" p-id="2050"></path><path d="M634.368 481.792s-17.92 32.256 0 43.008c17.408-9.728 0-43.008 0-43.008z" fill="#4F4F4F" p-id="2051"></path></svg>